<svg xmlns="http://www.w3.org/2000/svg" width="122" height="36" fill="none" viewBox="0 0 122 36"><g fill="#000" clip-path="url(#a)"><path d="M84.358 15.922c-.002.248.438.507.604.636q.47.382.964.73 1.072.767 2.253 1.367c.636.334 1.33.646 2.047.782.532.105 1.082.1 1.616.193.384.071.862.183.8.651-.068.551-1.008.48-1.407.48-1.575 0-3.187-.184-4.644-.787-1.508-.617-2.845-1.62-4.102-2.622-.307-.24-.609-.482-.914-.725-.36-.292-.585-.384-1.04-.5a9.8 9.8 0 0 1-2.2-.819c-2.553-1.333-4.223-3.778-4.315-6.582-.092-2.786 1.264-5.514 3.753-7.01 2.682-1.608 6.12-1.626 8.778.037 2.301 1.438 3.736 3.783 3.806 6.43.074 2.86-1.3 5.523-3.942 6.932-.651.344-1.347.604-2.059.805M77.779 3.664c-1.33 1.952-1.368 4.75-.88 6.959.514 2.345 1.97 4.18 4.55 4.556 2.5.358 4.75-.816 5.675-3.076.887-2.158.984-4.854.2-7.05-.603-1.687-2.02-2.993-3.85-3.364-2.073-.425-4.497.213-5.696 1.975M43.924.933c2.992.028 5.982 0 8.973.053.7.009 1.403.075 2.104.048.523-.023.937-.255 1.439-.303.947-.094.785 1.369.8 1.936.02.638.388 1.657.028 2.232-.166.266-.574.252-.744 0-.206-.293-.211-.713-.242-1.057-.08-.877-.311-1.677-1.38-1.764-.603-.048-1.209.052-1.814.052h-1.994c.03 3.526-.035 7.05-.01 10.575.006.693-.091 1.482.08 2.16.107.43.67.416 1.038.426.384.014.88-.04 1.22.167.457.278.122.792-.326.815-.659.032-1.354-.122-2.018-.147-.843-.032-1.682.004-2.526.037-.547.025-1.203.151-1.746.038-.191-.04-.36-.151-.406-.344-.092-.387.169-.55.54-.585.503-.043 1.296.227 1.702-.181.35-.353.315-1.023.31-1.471-.01-1.43-.049-2.86-.049-4.289 0-2.172.089-4.356-.048-6.524a28 28 0 0 0-.053-.676c-.276.006-.546.002-.824-.008-.502-.018-1.004-.027-1.505-.041-.664-.027-2.038-.357-2.402.39-.34.688-.2 1.535-.468 2.251-.272.734-.956.32-1.002-.278-.068-.796.15-1.622.228-2.411.059-.633.215-1.628 1.093-1.101M62.621 2.133c-.018.412.467.846.679 1.167q.532.813 1.048 1.619c.701 1.09 1.404 2.184 2.153 3.239.945-1.357 1.822-2.757 2.715-4.149.298-.468 1.793-2.044.487-2.16-.281-.019-.76.049-.932-.228-.477-.773.877-.702 1.285-.666.775.072 1.57.037 2.348-.029.377-.032 1.22-.236 1.389.25.325.911-.906.596-1.33.75-.595.213-.922.986-1.218 1.473-.843 1.408-1.8 2.76-2.704 4.131-.394.603-.905 1.207-1.194 1.865-.32.727-.2 1.704-.18 2.482.018.837.064 1.677.079 2.516.005.39.029.613.472.712.359.084.742.041 1.11.038.39 0 .93.051.965.533.04.63-.609.693-1.11.65-1.325-.116-2.545-.25-3.879-.132-.579.048-2.591.374-2.376-.707.092-.469.714-.493 1.105-.497.284-.003.567.009.854.013.2.001.26.053.346-.142a2.4 2.4 0 0 0 .169-.644c.103-.718-.005-1.453-.004-2.177.004-.74.094-1.524-.088-2.255-.16-.642-.664-1.213-1.043-1.757-.478-.69-.934-1.399-1.404-2.095-.437-.65-.877-1.29-1.311-1.942-.366-.533-.64-1.136-1.056-1.645-.364-.445-.734-.434-1.258-.576a.454.454 0 0 1 0-.888c.657-.188 1.468.067 2.128.13.907.08 1.75-.18 2.642-.213.303-.011.72.023.895.312a.427.427 0 0 1-.222.622c-.499.184-1.175-.052-1.56.404M25.512.888c.36-.014.934.005.94.482.007.532-.547.518-.96.503-.345-.014-.943-.088-1.152.265-.25.416-.197 1.056-.195 1.524.009 3.19.03 6.377.03 9.565 0 .462-.198 1.556.196 1.916.232.213.758.14 1.047.15.276.006.752-.015.934.231.335.449-.35.793-.715.77-1.527-.107-3.036-.316-4.573-.18-.326.03-1.207.189-1.202-.34.006-.415.674-.438.97-.462.305-.029.699-.015.964-.176.255-.156.27-.588.29-.84.07-.906-.038-1.826-.038-2.734 0-2.478-.04-4.96.059-7.437.027-.647.237-1.831-.561-2.092-.297-.098-2.32-.137-1.61-.872.45-.467 1.751-.146 2.312-.098 1.102.092 2.17-.131 3.267-.175M105.152 2.037c-.384-.288-2.01.039-1.979-.625.033-.636.694-.49 1.152-.443.697.075 1.41.153 2.109.085.497-.048 2.62-.553 2.497.42-.109.901-1.733.038-2.084.681-.254.467-.162 1.147-.157 1.653.009.794.002 1.59.002 2.384 0 1.594.092 3.195.066 4.787-.014 1.331-.092 2.69-1.159 3.662-.868.793-2.078 1.27-3.234 1.502-2.437.491-5.836.36-7.777-1.344-1.028-.899-1.135-2.39-1.155-3.64-.03-1.632.018-3.267.024-4.907.003-.815 0-1.627-.015-2.446-.01-.424-.015-.855-.03-1.278-.01-.332.043-.568-.344-.639-.448-.085-.916.03-1.366-.053-.326-.065-.484-.5-.19-.698.585-.406 1.615-.18 2.28-.151.822.025 1.646.053 2.464.004.455-.034 1.717-.383 1.695.425-.024.878-1.89.028-2.136.817-.166.522-.06 1.144-.04 1.68.034.811-.036 1.628-.05 2.44a132 132 0 0 0-.057 5.048c.014 1.088.198 2.033 1.118 2.737 1.446 1.108 3.622 1.298 5.375.924.861-.181 1.72-.529 2.353-1.133.806-.77.905-1.75.879-2.794-.04-1.573-.044-3.143-.044-4.72 0-.783-.018-1.572.009-2.356.019-.672.072-1.382-.208-2.024M113.635 2.324c-.123 1.718-.016 3.447-.053 5.165.796.099 1.602.103 2.406.099.419 0 .839-.005 1.26-.005.443 0 .629-.082.795-.488.167-.41.093-1.23.498-1.5.732-.489.747.631.719.995-.049.707-.011 1.43-.009 2.14.004.34.215 2.214-.219 2.28-.956.136-.791-1.362-1.039-1.894-.195-.418-1.439-.31-1.838-.306-.842.003-1.683.065-2.522.017-.103 1.647-.048 3.294-.062 4.934 0 .523.048.887.614.991.57.108 1.163.098 1.739.098 1.041.005 2.474.368 3.436-.085 1.015-.48.419-2.119 1.133-2.8.414-.392.758.1.798.463.054.491-.06.982-.099 1.473-.059.638.005 1.436-.243 2.044-.162.396-.933.282-1.271.27-1.497-.057-2.982-.167-4.483-.156-1.792.008-3.607.212-5.395.152-.363-.012-1.021-.337-.558-.734.324-.284.929-.23 1.338-.27.272-.028.404-.068.592-.262.224-.225.138-.687.143-1.01.019-.84.024-1.68.03-2.525.013-1.703.009-3.412.004-5.123q-.006-1.214-.006-2.43c0-.45.243-1.378-.191-1.706-.479-.358-1.751.124-2.005-.477-.269-.647.572-.665.997-.645.908.033 1.823.003 2.728.003 1.791 0 3.579 0 5.371.048.34.009.688.014 1.021-.059.239-.055.434-.221.673-.047.431.308.361 1.141.39 1.592.022.464.578 2.615-.294 2.568-.909-.047-.782-2.053-1.181-2.549-.451-.562-1.644-.307-2.27-.27-.986.06-1.963-.118-2.949.01M1.413 1.606c-.015-.351-.026-.616.403-.635.419-.023.837.002 1.254.027.887.063 1.75.094 2.636.051C7.288.964 8.878.869 10.463.973c3.074.202 6.02 1.753 7.222 4.606 1.144 2.703.186 6.093-1.714 8.258-.9 1.024-2.077 1.877-3.453 2.17-1.466.311-3.019.292-4.512.221-1.062-.039-2.114-.1-3.175-.094-.538 0-1.082.029-1.62.043-.466.014-1.298.17-1.697-.142-.283-.23-.088-.628.215-.722.416-.124.872-.058 1.295-.156.76-.17.574-1.44.567-1.99-.035-2.54-.147-5.085-.061-7.624.033-.982.213-2.02.048-3.001-.223-1.296-1.474-.273-2.165-.936m4.334.574c0 3.285.112 6.58-.01 9.864-.018.505-.047 1.007-.05 1.516 0 .35-.07.945.16 1.246.312.417 1.36.288 1.816.298.83.018 1.662.029 2.49-.01 1.32-.064 2.501-.284 3.461-1.213.94-.906 1.47-2.156 1.752-3.385.594-2.643.112-5.73-2.307-7.415-.968-.67-2.114-.917-3.284-.993-.67-.046-1.344-.046-2.016-.046-.35 0-1.88-.185-2.01.138M33.348 9.355c-.092 1.613-.074 3.232-.048 4.84.009.443-.019 1.005.543 1.07.457.055.921-.032 1.374.02.375.05.697.292.54.69-.2.519-1.315.239-1.723.203-.738-.062-1.472-.133-2.211-.127-.779.002-1.551.198-2.322.179-.395-.01-.914-.36-.513-.752.283-.284.859-.227 1.227-.245.19-.01.386-.023.565-.081.29-.096.235-.443.255-.695.083-.883.024-1.775.024-2.658V6.624c0-1.223.094-2.47.035-3.691-.015-.273-.005-.68-.197-.903-.224-.273-.805-.165-1.114-.156-.36.006-.817-.053-.756-.51.053-.415.673-.364.978-.344 1.24.088 2.463.08 3.71.064 1.29-.018 2.648-.029 3.88.388 2.423.823 3.57 3.54 2.195 5.689-1.378 2.154-4.06 2.384-6.444 2.195m3.38-1.387c1.182-.81 1.666-2.512 1.105-3.788-.291-.654-.8-1.365-1.505-1.661-.664-.284-1.464-.335-2.184-.355a11 11 0 0 0-.493 0c-.252.009-.301-.06-.312.213q-.036.706-.045 1.411c-.01.968.004 1.94.013 2.911 0 .482.004.968-.003 1.448-.002.312.121.219.4.236q.39.038.777.052c.767.023 1.602-.023 2.248-.467M55.198 27.266c.565 1.342 1.084 2.71 1.624 4.065a83 83 0 0 0 .793 1.915c.138.31.276.624.423.932.151.325.418.224.734.31.227.063.326.437.118.568-.197.119-.51.051-.721.023-.61-.073-1.183-.009-1.794.018-.278.008-.866.042-.839-.367.026-.381.791-.282 1.05-.32-.082-.531-.314-1.01-.553-1.489a7 7 0 0 1-.342-.797h-1.904c-.462 0-.49.074-.68.471-.265.552-.448 1.135-.736 1.672.277.136 1.124.037.932.57-.123.352-.892.205-1.162.196-.311-.014-1.167.204-1.384-.076-.103-.135-.044-.428.114-.499.094-.042.208-.047.306-.067.224-.037.235-.18.333-.37.671-1.293 1.197-2.647 1.745-3.99.274-.673.554-1.347.86-2.01.24-.52.386-1.085 1.08-.755m-1.586 4.097h1.736a38 38 0 0 0-.842-2.143c-.29.718-.617 1.42-.896 2.143M72.721 27.792c-.12.328-.767.138-1.03.24a99 99 0 0 0-.05 1.964c-.02 1.407-.009 2.815.046 4.223.015.508.802 0 1.005.422.219.45-.366.503-.664.484-.49-.034-.948-.114-1.446-.078-.296.028-.594.078-.89.07-.396-.008-.42-.209-.405-.56.138-.209.447-.197.662-.184q.16.015.32.04c.039-.193.06-.384.08-.58.069-.765.025-1.536.02-2.3-.008-.708-.004-1.417-.004-2.12 0-.463.254-1.309-.366-1.385-.236-.032-.672 0-.721-.309-.102-.604 1.03-.333 1.344-.317.515.037 2.129-.509 2.097.39M79.236 27.316c.204.195.154.538.147.79-.015.33.079.632.105.957.053.636-.681.468-.768-.025-.07-.381-.055-.832-.487-1.018-.539-.24-1.378-.19-1.853.165-.507.38-.754 1.085-.307 1.606.416.49 1.15.647 1.74.842 1.27.415 2.383 1.374 2.072 2.803-.27 1.245-1.483 1.754-2.691 1.796a6.8 6.8 0 0 1-1.952-.234c-.223-.062-.64-.085-.646-.324-.005-.233-.06-.463-.094-.699-.055-.344-.204-.897.02-1.209.332-.466.654.29.707.523.171.8.741 1.172 1.595 1.241.863.064 1.895-.294 1.882-1.267-.011-1.314-1.87-1.543-2.82-1.986-1.152-.543-1.57-1.838-.903-2.927.938-1.539 2.755-.927 4.25-1.032M64.744 31.365c.247.665.815 1.191 1.165 1.8.329.586.553 1.166 1.313 1.25.265.03.506.118.44.431-.083.405-.446.36-.825.357-.693-.006-1.35-.176-1.753-.75-.397-.57-.71-1.204-1.08-1.79-.189-.31-.384-.623-.6-.922h-.652c-.38 0-.438-.059-.466.319-.05.7-.047 1.405.015 2.1.046.51.924.082 1.126.492.29.58-.75.47-1.017.443-.736-.076-1.459.056-2.186.003-.535-.051-.478-.643.03-.686.15-.012.296-.003.443 0 .294.002.191-.166.2-.404q.032-.725.036-1.443c.009-.846-.004-1.697-.01-2.54q-.005-.64-.003-1.273c.003-.444.116-.71-.409-.718-.187-.01-.51.033-.627-.148-.03-.193-.024-.443.191-.539.457-.195 1.198.082 1.687.059 1.325-.059 3.166-.36 4.036.902.686.998.162 2.69-1.056 3.057m-.594-.523c.767-.52.673-2.107-.097-2.567-.254-.156-.554-.19-.843-.19-.171-.004-.338.002-.506.002-.392 0-.397-.043-.423.352-.059.866.015 1.729-.016 2.589.596-.037 1.364.165 1.885-.186M44.576 27.362c1.714.06 5.621-.558 5.667 2.03.024 1.346-1.054 2.179-2.35 2.306-.312.034-.628.034-.939.015-.3-.022-.215.062-.232.313-.01.176-.02.357-.027.534-.01.347-.168 1.787.23 1.869.267.056.82-.105.98.186.396.718-1.026.47-1.32.443-.356-.025-.714-.053-1.071-.028-.302.017-.66.175-.966.074-.245-.08-.331-.39-.125-.562.16-.133.416-.12.613-.136.36-.023.332-.073.35-.42q.016-.584.028-1.174a97 97 0 0 0 .011-2.425q-.016-1.183-.055-2.355c-.237-.113-.528-.014-.774-.08-.276-.072-.27-.489-.02-.59m4.3 2.145c-.034-.627-.483-1.103-1.085-1.292a2.6 2.6 0 0 0-1.089-.09v2.281c0 .252-.125.615.173.647a2.2 2.2 0 0 0 1.05-.11c.617-.236.99-.803.952-1.436"/></g><defs><clipPath id="a"><path fill="#fff" d="M.531.5h120.944v35H.531z"/></clipPath></defs></svg>